<svg xmlns="http://www.w3.org/2000/svg" viewBox="0 0 388.53 107.03"><title>logo nero</title><g id="Livello_2" data-name="Livello 2"><g id="Livello_1-2" data-name="Livello 1"><path d="M80.63,13.86c-1.4-9.3-10.7-7.6-10.7-7.6s-4.1-.1-11,5-17.7,18.4-17.7,18.4c-7.4-1.2-14.3-2.1-19-.9a26.92,26.92,0,0,0-12.4,6.1,37.32,37.32,0,0,0-7,8.2c-4,6.2-4.1,12.3,1.9,16.6a24.72,24.72,0,0,0,4.4,2.7c3.8,1.8,4.3.9,4.3.9l-1.5-1.2c-3.5-2.9-6-7-6.3-10.1-.5-4.8,2-9.2,5.2-12.9A26.59,26.59,0,0,1,26.43,31c5.4-.7,13.7,1.4,13.7,1.4s-11.6,17.7-11.6,28.7,6.9,15.7,9.9,16.5a26,26,0,0,0,10.5.5,29.8,29.8,0,0,0,8.5-3.8,24.76,24.76,0,0,0,2.6-1.9l1.9-1.6a7.74,7.74,0,0,0,1.9-2.8c.2-.8-.2-1.5-1.2-.2-1.2,1.6-4.1,3.5-7,4.9a14.67,14.67,0,0,1-6.2,1.8c-4.6.4-9.3-1.4-11.2-4.5-.5-.9-2.3-2.7-.5-13.9s13.1-23.7,13.1-23.7c4.9.1,10.1-1.5,13.9-3.1a46.11,46.11,0,0,0,11.9-6.9C79.83,19.76,81.13,17.06,80.63,13.86Zm-3.1,3c-.8,2.2-2,3-3.7,4.2-3.7,2.6-12.8,8.3-22.2,8.6l8.7-11.6a29.18,29.18,0,0,1,5.5-5.6c2.8-2.1,6.5-4.1,9.3-2.3A5.74,5.74,0,0,1,77.53,16.86Z"/><path d="M388.33,58a1.15,1.15,0,0,0-1.7-.6c-1,.8-1.5,2.6-1.8,4.1a14.91,14.91,0,0,1-1.4,3.7c-1.1,2-2.8,4.3-4.5,2.2a17,17,0,0,1-3.4-10.3V33.26c-2.6-5.2-9.2-4.7-9.2-4.7-2-.7-6.6,9.5-7.8,18.4s-1.9,6.8-1.9,6.8c-1.3-11.7.2-17.5-1-20.9s-7.3-5.3-9.4-4.2-7.8,18.5-7.8,18.5.6-14,0-16.1-5.1-2.3-7.2-2.5-2,1.6-2,1.6.6,23.2,0,27.9-4.5,11.8-7.8,9.9-3-7.6-3-7.6-.1-27.1,0-28-1.4-1.8-1.4-1.8c-2.5-2.2-6.4-1.3-6.4-1.3a3.07,3.07,0,0,0-1.2,2.3c-.2,1.7-.6,1.3-.6,1.3-1.7-3.6-6.7-6.8-11.8-5s-6.6,4.4-9.8,11.2-2,18.8-1.7,21.8-1.8,6.8-4.1,7.5-4-1.1-5.8-6.1,0-14.9,2-23.3-5-7-5-7-11.3,3.7-10.4,1.5a5.84,5.84,0,0,0,0-4,5.22,5.22,0,0,0-5.7-2.8c-1.2.1-3.9,1.3-4.9,5.7a6.5,6.5,0,0,0,2.6,6.8l-.1.5c-5.5,20-10.7,22.5-10.7,22.5s.2-28,.3-29.2a3,3,0,0,0-.3-1.8s-5.3-2.1-7.3-1.8-1.6,3.5-1.6,3.5-6.5-9.6-16.2-2.6c-10.3,7.4-8.2,25.8-7.5,30.1-.7.8-.7.8-2,2.2-3.4,3.2-12.7,7.6-17.2,6.1-2.7-1-6.5-1.3-7.5-10.5a11.29,11.29,0,0,1,0-2.6s15.6,2.1,22.1-8.9-6-19.4-15.8-16.4-12.3,16.9-12.5,25.8a11.41,11.41,0,0,1-.3,2.1,11.3,11.3,0,0,1-1.1,2.2l-.7.8c-5.1,6-5.5,1.1-6.7-2.7a26.19,26.19,0,0,1-1.2-5.4c-1.1-10.8.3-16.2-.8-19.5s-7.3-5.3-9.4-4.2-7.8,18.5-7.8,18.5.6-14,0-16.1-5.1-2.3-7.2-2.5-2,1.6-2,1.6a20.52,20.52,0,0,1-3.6,3.8A39.18,39.18,0,0,1,133,37h0c-1.6-5.4-5-9.3-10.3-10.3-6.6-1.3-13.3,2.7-17.6,9.6h0l-.9,1.5a14.81,14.81,0,0,0-.8,1.7h0c-.6,1.3-1.2,2.8-1.4,3.3a25.77,25.77,0,0,0-1.1,4.2c-2.6,13.1,2.9,25.2,12.3,27.1,6.6,1.3,11.2-2.2,15.6-9.3a45.89,45.89,0,0,0,4.4-12.3,37.66,37.66,0,0,0,.7-10.9s2-1.2,4-2.2a10.81,10.81,0,0,0,2.3-1.8.4.4,0,0,1,.7.3c.1,5.7.2,13.6,0,18.1-.1,2.6-.1,5.3,0,7.9l.1,2.8c0,.6.1,1.2.1,1.8a21.93,21.93,0,0,1,.2,2.9c.1,1.9,2.3,2.7,2.3,2.7a20.13,20.13,0,0,0,6,.3c2.7-.3,2.1-3.1,2.1-3.1l.2-5.8c1.8-21.4,7.8-24.9,7.6-24.8s.7,12.8,1.3,18.7,1.2,7,2.2,8.8c5,9.5,18.8-2.5,18.8-2.5,4.3,9.4,14.2,13.8,27.6,2a22.26,22.26,0,0,1,2.4-1.9h.1a.31.31,0,0,1,.1-.2c.2.6.3.7.6,1.5,1.6,3.5,5.5,5.6,5.5,5.6s2.6,1.8,8,.9,9.1-6.6,9.1-6.6l.3,4.4a162.73,162.73,0,0,0-12.1,11,25.18,25.18,0,0,0-5.7,8.1,11.88,11.88,0,0,0,5,15.3,10.85,10.85,0,0,0,7.9.9c13.8-3.5,13.2-20.8,13.2-20.8l-.3-16.6c7.9-6.1,16-25.8,17.3-29.2a.75.75,0,0,1,.7-.5l6.1-.2c.3,0,.7.5.7.8-.5,2.6-2.7,14.7-1.7,21.3a17.87,17.87,0,0,0,6.5,10.7,5.82,5.82,0,0,0,2.5,1.2,19.07,19.07,0,0,0,4.6.4c3.3-.2,6.7-5.8,7.1-6.6.9,3.5,5.4,5.9,6.5,6.1s.1.3,6,.3,10.8-8.6,10.8-8.6c.6,6.3,7.5,10.1,11.8,8.8s6.8-6.8,6.8-6.8a26.07,26.07,0,0,1,.3,3.8c.1,1.9,2.3,2.7,2.3,2.7a20.13,20.13,0,0,0,6,.3c2.7-.3,2.1-3.1,2.1-3.1l.2-5.8c1.8-21.4,7.8-24.9,7.6-24.8s.7,12.8,1.3,18.7,1.2,7,2.2,8.8c1.5,3,6.9,3.6,8.1,2.2.9-1,.8-3.5.7-4.7v-1.7c1.8-15,7-24,7-24v9.7c-.4,2,.3,8.4.7,11.6a24.25,24.25,0,0,0,1.7,6.4c1.3,2.8,3.5,6,7,6.6,6.6,1.2,9.3-3.8,9.3-3.8s.9-1.1,2.3-7.1C388.63,60.16,388.63,58.76,388.33,58Zm-196.2-23.4a9.21,9.21,0,0,1,7.8,1.6c2.2,1.4,3.6,4.1,1.7,8.1-4,8.4-17.2,5.6-17.2,5.6C183.63,39,188.43,35.56,192.13,34.56Zm-70.6-1.7a9.66,9.66,0,0,1,7,6c-4.1,1.4-5.2,2-9.4,1.8-3.1-.1-4.8-.9-8.7-3.1C113.53,34,117.53,32.06,121.53,32.86Zm7.6,18.7a33.43,33.43,0,0,1-3.2,8.9c-3.2,5.2-6.5,7.8-11.3,6.8-6.9-1.4-10.9-10.2-9-19.7a26.27,26.27,0,0,1,.8-3c.2-.5.9-2.3,1.3-3.1a19.81,19.81,0,0,0,11,3.9,25.45,25.45,0,0,0,10.8-2.4c0,.2.1.5.1.8A23.61,23.61,0,0,1,129.13,51.56Zm105.5-5.8v2.1c.2,11.7-3.7,17.9-5.7,19.4-7.1,5.3-8.9-8.4-8.9-8.4-2.6-20.6,6.5-23.5,6.5-23.5a7.12,7.12,0,0,1,5,.5C234.53,38.66,234.73,43.76,234.63,45.76Zm-3.4,55.7c-2.5,1.9-5,1.6-6.4.3a6.68,6.68,0,0,1-1.7-7c1.1-3.3,4.2-8.6,12.3-16.7V87C235.33,87.06,236.23,97.66,231.23,101.46ZM309.13,52a45.32,45.32,0,0,1-1.3,7.8c-1.5,5.4-4.5,8.5-7.3,8.3-1.8-.1-3.7-1.7-4.8-4.3-1.3-3.1-1.6-7.7-1.2-12.7.3-4.4.7-8.7,2.1-11.6,1.5-3.1,4.1-4.6,6.1-4.4s4.7,2.3,5.8,5.8C309.53,43.86,309.43,47.86,309.13,52Z"/><path d="M86.23,6.36s-2.8,2.5-3.3,10.6,0,51.3,0,51.3-.3,5.7-2.4,7.9.7,2.4.7,2.4,7.7-1.5,9.6-10.7l.6-2.8a54.67,54.67,0,0,0,1.2-12.7c-.1-10.3-.3-30.3.1-37.4.5-9.9,2.3-12.8,2.3-12.8S95.83-4.84,86.23,6.36Z"/></g></g></svg>